<svg width="107" height="17" viewBox="0 0 107 17" fill="none" xmlns="http://www.w3.org/2000/svg">
<path d="M10.4062 1.0624L12.4375 5.1874L17.0312 5.84365C17.4479 5.94782 17.7083 6.17699 17.8125 6.53115C17.9375 6.90615 17.8541 7.2499 17.5625 7.5624L14.25 10.7499L15.0312 15.3124C15.0937 15.7291 14.9687 16.052 14.6562 16.2812C14.3437 16.5103 13.9896 16.5312 13.5937 16.3437L9.49998 14.2499L5.40623 16.3749C5.01039 16.5624 4.65623 16.5416 4.34373 16.3124C4.03123 16.0832 3.90623 15.7603 3.96873 15.3437L4.74998 10.7812L1.43748 7.5624C1.14581 7.2499 1.06248 6.90615 1.18748 6.53115C1.29164 6.17699 1.55206 5.95824 1.96873 5.8749L6.56248 5.1874L8.59373 1.0624C8.82289 0.687403 9.12498 0.499903 9.49998 0.499903C9.89581 0.499903 10.1979 0.687403 10.4062 1.0624Z" fill="#FFB539"/>
<path d="M32.4062 1.0624L34.4375 5.1874L39.0312 5.84365C39.4479 5.94782 39.7083 6.17699 39.8125 6.53115C39.9375 6.90615 39.8541 7.2499 39.5625 7.5624L36.25 10.7499L37.0312 15.3124C37.0937 15.7291 36.9687 16.052 36.6562 16.2812C36.3437 16.5103 35.9896 16.5312 35.5937 16.3437L31.5 14.2499L27.4062 16.3749C27.0104 16.5624 26.6562 16.5416 26.3437 16.3124C26.0312 16.0832 25.9062 15.7603 25.9687 15.3437L26.75 10.7812L23.4375 7.5624C23.1458 7.2499 23.0625 6.90615 23.1875 6.53115C23.2916 6.17699 23.5521 5.95824 23.9687 5.8749L28.5625 5.1874L30.5937 1.0624C30.8229 0.687403 31.125 0.499903 31.5 0.499903C31.8958 0.499903 32.1979 0.687403 32.4062 1.0624Z" fill="#FFB539"/>
<path d="M54.4062 1.0624L56.4375 5.1874L61.0312 5.84365C61.4479 5.94782 61.7083 6.17699 61.8125 6.53115C61.9375 6.90615 61.8541 7.2499 61.5625 7.5624L58.25 10.7499L59.0312 15.3124C59.0937 15.7291 58.9687 16.052 58.6562 16.2812C58.3437 16.5103 57.9896 16.5312 57.5937 16.3437L53.5 14.2499L49.4062 16.3749C49.0104 16.5624 48.6562 16.5416 48.3437 16.3124C48.0312 16.0832 47.9062 15.7603 47.9687 15.3437L48.75 10.7812L45.4375 7.5624C45.1458 7.2499 45.0625 6.90615 45.1875 6.53115C45.2916 6.17699 45.5521 5.95824 45.9687 5.8749L50.5625 5.1874L52.5937 1.0624C52.8229 0.687403 53.125 0.499903 53.5 0.499903C53.8958 0.499903 54.1979 0.687403 54.4062 1.0624Z" fill="#FFB539"/>
<path d="M76.4062 1.0624L78.4375 5.1874L83.0312 5.84365C83.4479 5.94782 83.7083 6.17699 83.8125 6.53115C83.9375 6.90615 83.8541 7.2499 83.5625 7.5624L80.25 10.7499L81.0312 15.3124C81.0937 15.7291 80.9687 16.052 80.6562 16.2812C80.3437 16.5103 79.9896 16.5312 79.5937 16.3437L75.5 14.2499L71.4062 16.3749C71.0104 16.5624 70.6562 16.5416 70.3437 16.3124C70.0312 16.0832 69.9062 15.7603 69.9687 15.3437L70.75 10.7812L67.4375 7.5624C67.1458 7.2499 67.0625 6.90615 67.1875 6.53115C67.2916 6.17699 67.5521 5.95824 67.9687 5.8749L72.5625 5.1874L74.5937 1.0624C74.8229 0.687403 75.125 0.499903 75.5 0.499903C75.8958 0.499903 76.1979 0.687403 76.4062 1.0624Z" fill="#FFB539"/>
<path d="M98.4062 1.0624L100.437 5.1874L105.031 5.84365C105.448 5.94782 105.708 6.17699 105.812 6.53115C105.937 6.90615 105.854 7.2499 105.562 7.5624L102.25 10.7499L103.031 15.3124C103.094 15.7291 102.969 16.052 102.656 16.2812C102.344 16.5103 101.99 16.5312 101.594 16.3437L97.5 14.2499L93.4062 16.3749C93.0104 16.5624 92.6562 16.5416 92.3437 16.3124C92.0312 16.0832 91.9062 15.7603 91.9687 15.3437L92.75 10.7812L89.4375 7.5624C89.1458 7.2499 89.0625 6.90615 89.1875 6.53115C89.2916 6.17699 89.5521 5.95824 89.9687 5.8749L94.5625 5.1874L96.5937 1.0624C96.8229 0.687403 97.125 0.499903 97.5 0.499903C97.8958 0.499903 98.1979 0.687403 98.4062 1.0624Z" fill="#FFB539"/>
</svg>
