<svg width="18" height="20" viewBox="0 0 18 20" fill="none" xmlns="http://www.w3.org/2000/svg">
<path d="M10.6016 2.77344L17.4766 9.33594C17.6589 9.51823 17.75 9.73958 17.75 10C17.75 10.2604 17.6589 10.4818 17.4766 10.6641L10.6016 17.2266C10.1328 17.5911 9.6901 17.5911 9.27344 17.2266C8.90885 16.7578 8.90885 16.3151 9.27344 15.8984L14.4688 10.9375H1.1875C0.614583 10.8854 0.302083 10.5729 0.25 10C0.302083 9.42708 0.614583 9.11458 1.1875 9.0625H14.4688L9.27344 4.10156C8.90885 3.6849 8.90885 3.24219 9.27344 2.77344C9.6901 2.40885 10.1328 2.40885 10.6016 2.77344Z" fill="#000D44"/>
</svg>
