<svg width="18" height="20" viewBox="0 0 18 20" fill="none" xmlns="http://www.w3.org/2000/svg">
<path d="M7.39844 2.77344L0.523438 9.33594C0.341146 9.51823 0.25 9.73958 0.25 10C0.25 10.2604 0.341146 10.4818 0.523438 10.6641L7.39844 17.2266C7.86719 17.5911 8.3099 17.5911 8.72656 17.2266C9.09115 16.7578 9.09115 16.3151 8.72656 15.8984L3.53125 10.9375H16.8125C17.3854 10.8854 17.6979 10.5729 17.75 10C17.6979 9.42708 17.3854 9.11458 16.8125 9.0625H3.53125L8.72656 4.10156C9.09115 3.6849 9.09115 3.24219 8.72656 2.77344C8.3099 2.40885 7.86719 2.40885 7.39844 2.77344Z" fill="#000D44"/>
</svg>
