<svg width="16" height="16" viewBox="0 0 16 16" fill="none" xmlns="http://www.w3.org/2000/svg">
<path d="M15.9688 12.0938L15.25 15.25C15.1042 15.7292 14.7812 15.9792 14.2812 16C11.6354 15.9792 9.23958 15.3229 7.09375 14.0312C4.94792 12.7604 3.23958 11.0521 1.96875 8.90625C0.677083 6.76042 0.0208333 4.36458 0 1.71875C0.0208333 1.21875 0.270833 0.895833 0.75 0.75L3.90625 0.03125C4.40625 -0.052084 4.78125 0.135417 5.03125 0.59375L6.46875 3.96875C6.63542 4.42708 6.54167 4.8125 6.1875 5.125L4.53125 6.46875C5.05208 7.55208 5.73958 8.52083 6.59375 9.375C7.44792 10.2292 8.41667 10.9271 9.5 11.4688L10.875 9.78125C11.1875 9.42708 11.5729 9.33333 12.0312 9.5L15.4062 10.9375C15.8438 11.2083 16.0312 11.5938 15.9688 12.0938Z" fill="white"/>
</svg>
